<svg width="256" height="256" viewBox="0 0 256 256" xmlns="http://www.w3.org/2000/svg">
  <defs>
    <linearGradient id="grad1" x1="0%" y1="0%" x2="100%" y2="100%">
      <stop offset="0%" style="stop-color:#667eea;stop-opacity:1" />
      <stop offset="100%" style="stop-color:#764ba2;stop-opacity:1" />
    </linearGradient>
  </defs>
  
  <!-- Background circle -->
  <circle cx="128" cy="128" r="120" fill="url(#grad1)" stroke="#4a5568" stroke-width="4"/>
  
  <!-- Book/Story icon -->
  <rect x="80" y="60" width="96" height="120" rx="8" fill="white" opacity="0.9"/>
  <rect x="85" y="70" width="86" height="8" rx="2" fill="#667eea"/>
  <rect x="85" y="85" width="70" height="4" rx="2" fill="#a0aec0"/>
  <rect x="85" y="95" width="75" height="4" rx="2" fill="#a0aec0"/>
  <rect x="85" y="105" width="65" height="4" rx="2" fill="#a0aec0"/>
  
  <rect x="85" y="120" width="80" height="4" rx="2" fill="#a0aec0"/>
  <rect x="85" y="130" width="72" height="4" rx="2" fill="#a0aec0"/>
  <rect x="85" y="140" width="68" height="4" rx="2" fill="#a0aec0"/>
  
  <!-- AI/Magic sparkles -->
  <circle cx="60" cy="80" r="3" fill="#fbbf24"/>
  <circle cx="200" cy="100" r="2" fill="#fbbf24"/>
  <circle cx="70" cy="180" r="2.5" fill="#fbbf24"/>
  <circle cx="190" cy="160" r="2" fill="#fbbf24"/>
  
  <!-- Text "AI" -->
  <text x="128" y="220" text-anchor="middle" font-family="Arial, sans-serif" font-size="24" font-weight="bold" fill="white">AI</text>
</svg> 